<svg xmlns="http://www.w3.org/2000/svg" width="1114.16" height="489.59" viewBox="0 0 1114.16 489.59"><title>car-green</title><g id="Layer_2" data-name="Layer 2"><g id="Layer_1-2" data-name="Layer 1"><path d="M794.66,76.86c-20.94,2.29-40.91-8.9-61.83-11.46-32.36-4-66.22,15.33-79.28,45.21-6.11,14-7.61,31.11.64,44,7.36,11.47,20.7,17.26,32.61,23.89s24.08,16.37,25.44,29.93c2,19.84-19.26,33.44-27.75,51.48-12.89,27.41,7.47,61,34.84,74s59.06,11.28,89.34,10.64,62.68.68,87.38,18.22c22.42,15.93,36.74,44.12,63.15,51.81,26.17,7.62,53.19-8.25,74-25.88a340.9,340.9,0,0,0,48.74-50.87c9.59-12.34,18.55-25.91,21-41.34s-3.23-33.11-17-40.52c-16.6-9-39.75-1.16-54.14-13.35-15.51-13.15-8.95-37.69-4.64-57.56,9.82-45.25-1.27-96-33.87-128.88S906,12.27,865.78,35.24C841.65,49,822.29,73.85,794.66,76.86Z" fill="#fef7dd"/><path d="M526.53,96.24c29.71-.44,58.73,18.94,69.71,46.55s3.18,61.63-18.72,81.71C558,242.41,526.81,253.07,523,279.29c-2.22,15.12,6.26,30.55,2.87,45.44-3.61,15.9-19.45,25.82-34.77,31.42-51.74,18.92-109.08,8.37-163-3S217.51,329.65,164.89,346c-21.2,6.57-40.82,17.53-62,24.24s-45.34,8.73-64.65-2.2-30.12-38.15-17.7-56.54c9.43-14,27.61-18.26,43.87-22.71s34.28-12.15,39.23-28.25c5.17-16.81-6.4-33.57-15.16-48.81C61.69,165,58.94,103.64,87.42,58S177-12.35,227.36,6.67C248,14.47,266.83,28.85,288.87,30,315,31.27,337.82,13.75,362.59,5.39c21.46-7.25,45.52-7.45,66.53,1S467.67,32.37,474.7,53.9c4.65,14.22,6.1,31.75,19,39.34C503.31,98.9,515.37,96.41,526.53,96.24Z" fill="#fff3c0"/><path d="M230.83,271.47c.43-.79-10.47-28.06,16-31.84,27.57-3.93,72.66-9.73,102,9.71s43.33,33.47,43.33,33.47L234.83,271.47Z" fill="#447180"/><path d="M250.07,261.29c-1.49-2.94-2.79-6.22-2.18-9.47a11.08,11.08,0,0,1,4.8-6.81,25.25,25.25,0,0,1,7.83-3.31c10.25-2.83,21-3.44,31.62-3.32,11.55.14,23.18,1.13,34.27,4.4s21.64,8.9,29.54,17.33c1.55,1.65,3.08,3.89,2.28,6s-3.26,2.72-5.4,3.1c-27.66,4.94-56,4.76-84,3.28-4.17-.22-8.54-.53-12-2.8C253.71,267.73,251.71,264.52,250.07,261.29Z" fill="#769fb5"/><path d="M381.67,271.47s-11.34-26.47,16-31.84,72.66-9.73,102,9.71S543,282.81,543,282.81L385.67,271.47Z" fill="#447180"/><path d="M397.07,263.49c-1.49-2.95-2.79-6.23-2.18-9.47a11.1,11.1,0,0,1,4.8-6.82,25.49,25.49,0,0,1,7.83-3.31c10.25-2.83,21-3.44,31.62-3.32,11.55.14,23.18,1.14,34.27,4.4s21.64,8.9,29.54,17.33c1.55,1.65,3.08,3.89,2.27,6s-3.25,2.72-5.39,3.1c-27.66,5-56,4.76-84,3.28-4.17-.22-8.54-.53-12-2.79C400.71,269.92,398.71,266.72,397.07,263.49Z" fill="#769fb5"/><path d="M401.94,258.07H174.47c-4.52,0-8.7,2.78-11,7.29l-29.12,58S361.72,321.32,401.94,258.07Z" fill="#464040"/><path d="M390.16,268.59H156.65a2,2,0,0,1-2-2v0a2,2,0,0,1,2-2H390.17a2,2,0,0,1,2,2v0A2,2,0,0,1,390.16,268.59Z" fill="#769fb5"/><path d="M385.66,291H152.15a2,2,0,0,1-2-2v0a2,2,0,0,1,2-2H385.67a2,2,0,0,1,2,2v0A2,2,0,0,1,385.66,291Z" fill="#323338"/><path d="M381.73,299.54H148.21a2,2,0,0,1-2-2v0a2,2,0,0,1,2-2H381.73a2,2,0,0,1,2,2v0A2,2,0,0,1,381.73,299.54Z" fill="#323338"/><polygon points="453.01 244.39 406.16 161.51 674.66 156.04 747.66 222.01 453.01 244.39" fill="#d6bf5b"/><path d="M610.65,280.63c-15.61,0-29.07-5.66-36.91-15.52a32,32,0,0,1-6-27.65c5.28-22.8,32.48-41.36,60.62-41.36,15.62,0,29.07,5.66,36.91,15.52a32,32,0,0,1,6,27.65C666,262.08,638.8,280.63,610.65,280.63Zm17.71-76.53c-24.64,0-48.33,15.78-52.82,35.17A23.78,23.78,0,0,0,580,260.13c6.31,7.95,17.48,12.5,30.64,12.5,24.64,0,48.34-15.77,52.83-35.16A23.84,23.84,0,0,0,659,216.6C652.7,208.66,641.53,204.1,628.36,204.1Z" fill="#464040"/><path d="M670.88,164.11c0-.19-.11-.38-.17-.57-7.81.15-15.61.63-23.42,1-12.91.62-25.81-.09-38.7,0a7,7,0,0,0,.07,3.37l.75,3c.87,3.49,3.81,6.18,6.55,6l52.27-3.23c2.75-.17,4.27-3.13,3.4-6.62Z" fill="#323338"/><path d="M712.81,216.52c-11.37-14.32-23.45-28.1-34.63-42.56-4.43-5.72-9-11.91-13.87-17.71l-41.89.86c11.11,14,20.12,30.13,30.06,44.54,6,8.72,12.1,17.41,18,26.22l48.35-3.67C716.84,221.64,714.84,219.07,712.81,216.52Z" fill="#fbf0d9"/><path d="M663.08,156h-247c-10.78,0-17.56,13.57-12.26,24.52l39.38,81.37,317.33-30.71-61.05-59.71C689.31,161.52,676.41,156,663.08,156ZM423.21,172l246.36-6.42c9-.24,17.71,3.93,24,11.48L731,222.17l-256.23,31L421.62,176C420.53,174.45,421.47,172.09,423.21,172Z" fill="#323338"/><path d="M661.22,152.18H410.63c-10.93,0-17.81,13.56-12.43,24.52l40,81.37,322-30.71-61.95-59.71C687.84,157.66,674.75,152.18,661.22,152.18Zm-243.4,16,250-6.43c9.15-.23,18,3.93,24.35,11.49l38,45.06-260,31-54-77.17C415.1,170.59,416.05,168.22,417.82,168.18Z" fill="#0ea084"/><path d="M423.66,165.26l243.41-4.13c11.8,0,21,6.11,28.78,14.83l43.93,49.18,4.94-.47-46.54-52.08c-7.78-8.72-17-14.83-28.77-14.83L426,161.89c-5.26,0-9.95,3.6-12.56,8.42A13.84,13.84,0,0,1,423.66,165.26Z" fill="#769fb5"/><path d="M414.08,176l54,77.17,260-31-2.77-3.28L470.16,249.34l-54-77.17s0-.09-.08-.14h-.43C413.93,172.09,413,174.45,414.08,176Z" fill="#769fb5"/><path d="M1099.77,431.41c-10-63.43-25.85-126.48-62.13-161.1-23.69-22.6-52.54-29-80.42-31.52-48.89-4.5-259.57-11-307.77-1.22L623.3,431.41Z" fill="#13a395"/><path d="M1062,314.24c2.48,20-6.18,36.26-19.36,36.26s-25.87-16.23-28.35-36.26,6.18-36.27,19.35-36.27S1059.52,294.21,1062,314.24Z" fill="#045148"/><path d="M1068.4,315.74c2.62,22-6.43,39.79-20.15,39.79s-26.92-17.82-29.51-39.79,6.43-39.7,20.15-39.78C1052.25,275.88,1065.78,293.76,1068.4,315.74Z" fill="#00846b"/><path d="M1065.34,315.74c-2.53-18.34-13.65-33.22-24.84-33.22s-18.2,14.88-15.67,33.22S1038.48,349,1049.67,349,1067.87,334.09,1065.34,315.74ZM1051,341c-7.69,0-15.55-11.79-17.56-26.33s2.6-26.33,10.29-26.33,15.55,11.78,17.56,26.33S1058.71,341,1051,341Z" fill="#769fb5"/><path d="M1038.33,287.44a19.37,19.37,0,0,1,7.31-3.89,14.11,14.11,0,0,0-5.14-1c-11.19,0-18.2,14.88-15.67,33.22.17,1.26.4,2.5.66,3.72A34.61,34.61,0,0,1,1038.33,287.44Z" fill="#fef3dc"/><path d="M1064.4,310.63l-3.51,1.48q.24,1.25.42,2.52c2,14.54-2.6,26.33-10.29,26.33-6.15,0-12.4-7.54-15.69-18l-8,3.38c4.52,13.14,13.39,22.61,22.32,22.61,11.19,0,18.2-14.87,15.67-33.22Q1065,313.13,1064.4,310.63Z" fill="#447180"/><path d="M1045.08,286.22c-8,0-12.74,12.54-10.66,28s10.22,28,18.19,28,12.73-12.55,10.65-28S1053,286.22,1045.08,286.22Z" fill="#323338"/><path d="M1043.75,288.3c-7.69,0-12.29,11.78-10.29,26.33S1043.33,341,1051,341s12.29-11.79,10.29-26.33S1051.44,288.3,1043.75,288.3Z" fill="#fef3dc"/><path d="M1041.23,293.76a5.56,5.56,0,0,0-1.17,4.8c.6,3.43,3.16,6.2,6,8.26s6,3.6,8.66,5.82,4.91,5.38,4.86,8.86c1.72-4,.27-8.6-1.19-12.72-2-5.68-4.37-11.79-9.48-15C1046.53,292.35,1043.15,291.78,1041.23,293.76Z" fill="#bbc8d0"/><path d="M604.16,445.7h453.43c-9.93-73.67-24.33-153.6-66.95-194.26-23.69-22.61-52.54-29-80.42-31.53-48.34-4.45-254.81-9.74-306.06-.45Z" fill="#24d399"/><path d="M604.16,445.7H965.59c-9.93-73.67-24.33-153.6-67-194.26-23.69-22.61-52.54-29-80.42-31.53-32.14-3-134.21-1-214.06-.45Z" fill="#25b79b"/><path d="M641.56,228.54s54.17-10.75,99.83,22.62,44.6,60.38,45.38,75.38-7.71,50.75,20.79,84.62-47.5,41.38-70.5,28.88S641.56,228.54,641.56,228.54Z" fill="#086354"/><path d="M734.16,314.8c0-49.41-32.84-90.77-75.63-94.82l-.79-.07C513.13,206.6,373,280,229,296.07c-41.13,4.6-83.09,4.64-122.39,22.12s-76.66,56.34-89,114.16c-.93,4.33-1.63,9.26-.36,13.35H734.16Z" fill="#0ea084"/><path d="M104.44,323.05c41.93-17.49,86.72-17.53,130.6-22.13C383,285.43,527.11,216.87,675.32,223.64A72.65,72.65,0,0,0,658.53,220l-.79-.07C513.13,206.6,373,280,229,296.07c-41.13,4.59-83.09,4.64-122.39,22.12a149.52,149.52,0,0,0-46.22,32.6A159.41,159.41,0,0,1,104.44,323.05Z" fill="#fbf0d9"/><ellipse cx="455.75" cy="258.49" rx="6.72" ry="10.1" fill="#464040"/><path d="M35.3,431.81C35.3,383,76,342,121.55,324.28s95.63-17.76,144.36-21a1005.36,1005.36,0,0,0,217-38.68c23.25-6.87,46.38-14.62,70.39-17.9s49.38-1.77,71,9.15c27.09,13.67,45.53,40.93,54.14,70s8.41,60.07,5.85,90.3l-235.19-1Z" fill="#067f73"/><path d="M739.49,400.34H27.64a106.06,106.06,0,0,0-10.07,23.55c-.93,3.18-1.63,6.81-.36,9.82H739.49V400.34Z" fill="#086354"/><rect x="62.58" y="348.53" width="150.24" height="95.54" fill="#064438"/><path d="M1105.25,489.59H20.07a8.9,8.9,0,0,1-8.91-8.91v-.18a8.91,8.91,0,0,1,8.91-8.91H1105.25a8.91,8.91,0,0,1,8.91,8.91v.18A8.9,8.9,0,0,1,1105.25,489.59Z" fill="#4f4f4f"/><rect x="462.47" y="315.58" width="150.24" height="132.14" fill="#064438"/><path d="M583.7,299H525.16c-27.54,0-49.86,40.91-49.86,91.39s22.32,91.39,49.86,91.39H583.7c27.53,0,49.86-40.92,49.86-91.39S611.23,299,583.7,299Z" fill="#1d1818"/><ellipse cx="525.16" cy="390.43" rx="47.42" ry="86.93" fill="#323338"/><ellipse cx="521.22" cy="390.43" rx="32.13" ry="58.9" fill="#447180"/><ellipse cx="523.32" cy="389.79" rx="27.46" ry="50.33" fill="#bbc8d0"/><path d="M496,394.6c1.32,25.54,13.05,45.52,27.33,45.52,15.17,0,27.46-22.54,27.46-50.33q0-1.05,0-2.07C531.94,386,513.26,387.75,496,394.6Z" fill="#769fb5"/><ellipse cx="516.24" cy="390.43" rx="10.79" ry="19.78" fill="#447180"/><ellipse cx="515.37" cy="390.43" rx="7.96" ry="14.58" fill="#5d8da0"/><path d="M963.68,299H905.14c-27.54,0-49.86,40.91-49.86,91.39s22.32,91.39,49.86,91.39h58.54c27.54,0,49.86-40.92,49.86-91.39S991.22,299,963.68,299Z" fill="#1d1818"/><ellipse cx="905.14" cy="390.43" rx="47.42" ry="86.93" fill="#323338"/><ellipse cx="901.21" cy="390.43" rx="32.13" ry="58.9" fill="#447180"/><ellipse cx="903.3" cy="389.79" rx="27.46" ry="50.33" fill="#bbc8d0"/><path d="M876,394.6c1.33,25.54,13,45.52,27.33,45.52,15.17,0,27.46-22.54,27.46-50.33q0-1.05,0-2.07C911.92,386,893.24,387.75,876,394.6Z" fill="#769fb5"/><ellipse cx="896.22" cy="390.43" rx="10.79" ry="19.78" fill="#447180"/><ellipse cx="895.35" cy="390.43" rx="7.96" ry="14.58" fill="#5d8da0"/><path d="M1004.85,413.49h-153c-23.74,0-47.12-22.14-52.22-49.45l-.19-1c-5.11-27.31,10-49.45,33.73-49.45h153c23.73,0,47.11,22.14,52.22,49.45l.19,1C1043.69,391.35,1028.59,413.49,1004.85,413.49Z" fill="#0ea084"/><path d="M167.61,357H132.85c-18.8,0-34,27.95-34,62.42s15.25,62.43,34.05,62.43h34.76c18.81,0,34-27.95,34-62.43S186.42,357,167.61,357Z" fill="#1d1818"/><ellipse cx="132.85" cy="419.39" rx="32.39" ry="59.38" fill="#323338"/><path d="M430.82,357H396.06C377.25,357,362,384.92,362,419.39s15.25,62.43,34.05,62.43h34.76c18.81,0,34.05-27.95,34.05-62.43S449.63,357,430.82,357Z" fill="#1d1818"/><ellipse cx="396.06" cy="419.39" rx="32.39" ry="59.38" fill="#323338"/><path d="M775.79,324.63A200.46,200.46,0,0,0,771.67,304c-8.31-32.35-34.38-54.36-63.7-54.36H657.6c-81.74-5.11-278.36,69.93-312.6,95.51s-25.41,100.29-25.41,100.29l149.57.76V398.2c0-36.56,25.76-66.2,57.53-66.2H551.3c31.77,0,57.52,29.64,57.52,66.2v19.12A29.71,29.71,0,0,0,638.37,447l137.42.69S784.62,384.61,775.79,324.63Z" fill="#0ea084"/><path d="M346.16,349.35C381.87,323.77,561.66,251,666,261.08h52.53a65,65,0,0,1,37.79,12.29C744,258.53,726.65,249.59,708,249.59H657.59C575.85,244.48,379.24,319.52,345,345.1c-8.38,6.26-14.18,15.47-18.16,25.8C330.35,365.31,340.84,353.16,346.16,349.35Z" fill="#fbf0d9"/><path d="M668.16,390.43c-2.67-41,0-87.13-62-104.77s-218,51.4-258.67,74.36c-34.73,19.6-27.16,70.84-24.21,85.39l145.88.74V398.2c0-36.56,25.76-66.2,57.53-66.2H551.3c31.77,0,57.52,29.64,57.52,66.2v19.12A29.71,29.71,0,0,0,638.37,447l30.75.15C669.49,432.24,669.54,411.66,668.16,390.43Z" fill="#067f73"/><path d="M88.66,445.7v-37c0-25.87,18.22-46.84,40.71-46.84H152c22.48,0,40.71,21,40.71,46.84v37h64.82c-.67-22.65-1.57-45.49-6.06-67.13-4.77-23-14.13-44.81-28.35-56.45-14.59-11.94-32.19-11.8-48.83-10.22A382.94,382.94,0,0,0,92,329.09c-20.23,6.57-40.95,15.42-56.59,35.5S10.68,415.21,11.18,445.7Z" fill="#0ea084"/><path d="M96,335.39a461.31,461.31,0,0,1,91.64-14.13c12.79-.67,26.09-.63,38.44,3.56-1-.95-2-1.86-3-2.7-14.58-11.94-32.19-11.8-48.83-10.22A383.65,383.65,0,0,0,92,329.08c-20.23,6.58-40.95,15.43-56.59,35.5a90.32,90.32,0,0,0-5.45,7.86q1.5-1.89,3.07-3.65C50.4,349.3,73.48,341.21,96,335.39Z" fill="#fbf0d9"/><path d="M1095.84,447.71H700.47c-10.11,0-18.31-9.43-18.31-21.07v-.43c0-11.64,8.2-21.07,18.31-21.07h395.37c10.12,0,18.32,9.43,18.32,21.07v.43C1114.16,438.28,1106,447.71,1095.84,447.71Z" fill="#c8e5f8"/><path d="M800.66,405.14H700.47c-10.11,0-18.31,9.43-18.31,21.07v.43c0,11.64,8.2,21.08,18.31,21.08H800.66Z" fill="#fbf0d9"/><path d="M682.2,425.35c0,.29,0,.57,0,.86v.43c0,11.64,8.2,21.08,18.31,21.08h395.37c10.12,0,18.32-9.44,18.32-21.08v-.43c0-.29,0-.57,0-.86Z" fill="#447180"/><path d="M800.16,425.35h-118c0,.29,0,.57,0,.86v.43c0,11.64,8.2,21.08,18.31,21.08h99.69Z" fill="#30555e"/><path d="M1001.85,397.36h-153c-23.74,0-47.12-22.14-52.22-49.45l-.19-1c-5.11-27.31,10-49.46,33.73-49.46h153c23.73,0,47.11,22.15,52.22,49.46l.19,1C1040.69,375.22,1025.59,397.36,1001.85,397.36Z" fill="#cfb9a1"/><path d="M833,303.81h167.33a46.62,46.62,0,0,1,5.78.38,44.77,44.77,0,0,0-22.89-6.73h-153c-20.65,0-34.76,16.77-34.72,39.12C798,317.48,812.57,303.81,833,303.81Z" fill="#fef3dc"/><path d="M1000.57,393.32H865.85c-20.89,0-41.47-19.49-46-43.53l-.17-.88c-4.49-24,8.8-43.53,29.7-43.53H984.13c20.89,0,41.47,19.49,46,43.53l.16.88C1034.75,373.83,1021.46,393.32,1000.57,393.32Z" fill="#769fb5"/><path d="M990.11,385.94H872.06c-18.31,0-36.34-17.08-40.28-38.15l-.14-.77c-3.94-21.06,7.71-38.14,26-38.14H975.71c18.3,0,36.34,17.07,40.28,38.14l.14.77C1020.07,368.86,1008.42,385.94,990.11,385.94Z" fill="#1d1818"/><path d="M88.66,408.74c0-25.87,18.22-46.84,40.71-46.84H152c22.48,0,40.71,21,40.71,46.84v37h10.51a5.79,5.79,0,0,0,.49-1.63c3.5-26,2.5-108.74-29.5-112.13S68.66,341.08,41.66,365c-23,20.39-27.15,67.34-27.86,80.71H88.66Z" fill="#067f73"/><path d="M1013.6,326.68H830.46a3.3,3.3,0,0,1-3.3-3.3v-.07a3.3,3.3,0,0,1,3.3-3.3H1013.6a3.3,3.3,0,0,1,3.3,3.3v.07A3.3,3.3,0,0,1,1013.6,326.68Z" fill="#769fb5"/><path d="M1019.83,341.81h-191a3.3,3.3,0,0,1-3.3-3.3v-.07a3.3,3.3,0,0,1,3.3-3.3h191a3.3,3.3,0,0,1,3.3,3.3v.07A3.31,3.31,0,0,1,1019.83,341.81Z" fill="#769fb5"/><path d="M1022.83,357.81h-191a3.3,3.3,0,0,1-3.3-3.3v-.07a3.3,3.3,0,0,1,3.3-3.3h191a3.3,3.3,0,0,1,3.3,3.3v.07A3.31,3.31,0,0,1,1022.83,357.81Z" fill="#769fb5"/><path d="M1019.49,372.47H836.83a3.29,3.29,0,0,1-3.3-3.3v-.06a3.3,3.3,0,0,1,3.3-3.3h182.66a3.29,3.29,0,0,1,3.3,3.3v.06A3.29,3.29,0,0,1,1019.49,372.47Z" fill="#769fb5"/><path d="M1007.84,323.14H837a1.07,1.07,0,0,1-1.07-1.07v0A1.07,1.07,0,0,1,837,321h170.86a1.07,1.07,0,0,1,1.07,1.07v0A1.07,1.07,0,0,1,1007.84,323.14Z" fill="#fef3dc"/><path d="M1014.59,338.47H843.73a1.07,1.07,0,0,1-1.07-1.07v0a1.07,1.07,0,0,1,1.07-1.07h170.86a1.07,1.07,0,0,1,1.07,1.07v0A1.07,1.07,0,0,1,1014.59,338.47Z" fill="#fef3dc"/><path d="M1018.34,354.47H847.48a1.07,1.07,0,0,1-1.07-1.07v0a1.07,1.07,0,0,1,1.07-1.07h170.86a1.07,1.07,0,0,1,1.07,1.07v0A1.07,1.07,0,0,1,1018.34,354.47Z" fill="#fef3dc"/><path d="M1019.84,370.22H849a1.07,1.07,0,0,1-1.07-1.07v0a1.07,1.07,0,0,1,1.07-1.07h170.86a1.07,1.07,0,0,1,1.07,1.07v0A1.07,1.07,0,0,1,1019.84,370.22Z" fill="#fef3dc"/><path d="M469.41,447.71H193.67a3.76,3.76,0,0,1-3.76-3.76v-.07a3.76,3.76,0,0,1,3.76-3.76H469.41Z" fill="#769fb5"/><path d="M466,443.92H195.55a1.88,1.88,0,0,1-1.88-1.88v0a1.88,1.88,0,0,1,1.88-1.88H466a1.88,1.88,0,0,1,1.88,1.88v0A1.89,1.89,0,0,1,466,443.92Z" fill="#fbf0d9"/><path d="M463.35,424.75c-2.17-13.54-3.36-27.36-1.54-41s6.82-27,15.88-37.3c11.6-13.19,28.94-20.24,46.34-22.72s35.07-.83,52.57.83c-17.54,1.95-35.33,1.73-52.65,5.11s-34.69,11-45.18,25.14c-7.2,9.72-10.6,21.77-12.28,33.75S464.71,412.73,463.35,424.75Z" fill="#086354"/><path d="M116.9,360.43c-7.59,2-15.27,4.76-21.05,10.08-7.07,6.52-10.46,16.18-11.78,25.71s-.85,19.21-1.56,28.8C79.69,410.56,77,395,83,381.55s19.91-22.1,34.28-25.49,29.36-2.29,44.07-1.18A162.52,162.52,0,0,0,116.9,360.43Z" fill="#086354"/><path d="M942.66,242.79s-23.07,7.14-58.63,7.14-70.16-7.14-70.16-7.14,23.06-7.13,58.63-7.13S942.66,242.79,942.66,242.79Z" fill="#fbf0d9"/><path d="M755.72,313.74c3.31,26.69-8.24,48.33-25.8,48.33s-34.49-21.64-37.8-48.33,8.24-48.34,25.8-48.34S752.4,287,755.72,313.74Z" fill="#045148"/><path d="M764.23,315.74c3.5,29.28-8.57,53-26.85,53s-35.89-23.74-39.33-53,8.57-52.92,26.85-53C742.7,262.62,760.74,286.45,764.23,315.74Z" fill="#00846b"/><path d="M760.16,315.74c-3.38-24.45-18.2-44.27-33.11-44.27s-24.27,19.82-20.89,44.27S724.36,360,739.27,360,763.53,340.19,760.16,315.74Zm-19.09,33.61c-10.25,0-20.73-15.71-23.4-35.09s3.46-35.1,13.71-35.1,20.72,15.72,23.4,35.1S751.31,349.35,741.07,349.35Z" fill="#769fb5"/><path d="M724.16,278a25.78,25.78,0,0,1,9.74-5.17,18.59,18.59,0,0,0-6.85-1.37c-14.91,0-24.27,19.82-20.89,44.27.23,1.68.54,3.33.87,5A46.18,46.18,0,0,1,724.16,278Z" fill="#fef3dc"/><path d="M758.9,308.93l-4.67,2c.21,1.11.39,2.22.55,3.36,2.67,19.38-3.47,35.09-13.71,35.09-8.2,0-16.53-10.05-20.91-24l-10.64,4.51c6,17.51,17.85,30.13,29.75,30.13,14.91,0,24.26-19.82,20.89-44.27Q759.68,312.26,758.9,308.93Z" fill="#447180"/><path d="M733.15,276.39c-10.62,0-17,16.72-14.21,37.35s13.62,37.34,24.24,37.34,17-16.72,14.21-37.34S743.76,276.39,733.15,276.39Z" fill="#323338"/><path d="M731.38,279.16c-10.25,0-16.39,15.71-13.71,35.1s13.15,35.09,23.4,35.09,16.38-15.71,13.71-35.09S741.63,279.16,731.38,279.16Z" fill="#fef3dc"/><path d="M728,286.44a7.42,7.42,0,0,0-1.56,6.4c.8,4.58,4.21,8.27,8,11s8,4.81,11.54,7.77,6.55,7.16,6.47,11.8c2.3-5.34.37-11.46-1.58-16.94-2.69-7.58-5.82-15.72-12.64-20C735.09,284.56,730.58,283.8,728,286.44Z" fill="#bbc8d0"/><path d="M1097.06,413.49H703.54a2.71,2.71,0,0,1-2.71-2.71v0a2.71,2.71,0,0,1,2.71-2.72h393.52a2.71,2.71,0,0,1,2.71,2.72v0A2.71,2.71,0,0,1,1097.06,413.49Z" fill="#fff"/><ellipse cx="131.51" cy="419.39" rx="22.09" ry="40.48" fill="#447180"/><ellipse cx="132.95" cy="418.95" rx="18.88" ry="34.6" fill="#bbc8d0"/><path d="M114.16,422.26c.91,17.56,9,31.29,18.79,31.29,10.42,0,18.87-15.49,18.87-34.6,0-.48,0-.95,0-1.42C138.87,416.38,126,417.55,114.16,422.26Z" fill="#769fb5"/><ellipse cx="128.08" cy="419.39" rx="7.42" ry="13.6" fill="#447180"/><ellipse cx="127.48" cy="419.39" rx="5.47" ry="10.03" fill="#5d8da0"/><path d="M36,447.17H10.82A10.81,10.81,0,0,1,0,436.35v-8.62a10.82,10.82,0,0,1,10.82-10.82H36a15,15,0,0,1,15,15v.3A15,15,0,0,1,36,447.17Z" fill="#c8e5f8"/><path d="M0,433.14v3.21a10.81,10.81,0,0,0,10.82,10.82H36a15,15,0,0,0,14.93-14Z" fill="#447180"/><path d="M265,430.42h0a1,1,0,0,1-1-1c0-.78.52-78.3,0-99.59-.53-21.68,9.88-34.41,10.32-34.94a1,1,0,1,1,1.54,1.28c-.11.12-10.37,12.72-9.86,33.61.52,21.32,0,98.87,0,99.65A1,1,0,0,1,265,430.42Z" fill="#086354"/><path d="M278.14,309.09c.48-2.49,3.51-3.4,6-3.83l35.67-6.12c2.45-.42,5.61-.49,6.67,1.75.74,1.57-.13,3.52-1.52,4.57a11.52,11.52,0,0,1-4.86,1.73l-32.63,6.27a12.58,12.58,0,0,1-6.06.17C279.47,313,277.76,311.1,278.14,309.09Z" fill="#447180"/><path d="M286.6,304.91a9.41,9.41,0,0,0-3.18,1,3.16,3.16,0,0,0-1.68,2.7c4.86.7,9.81.05,14.67-.68q13.23-2,26.33-4.82a3.36,3.36,0,0,0-2.52-3.42,9.81,9.81,0,0,0-4.6.08Z" fill="#fbf0d9"/><path d="M381.83,239.35c1.61,14,11.74,24.42,22.61,23.4s18.38-13.16,16.76-27.11-11.74-24.43-22.61-23.4S380.21,225.4,381.83,239.35Z" fill="#447180"/><path d="M388.62,239.05c1.38,11.92,10,20.88,19.33,20s15.7-11.24,14.32-23.16-10-20.88-19.33-20S387.24,227.13,388.62,239.05Z" fill="#bbc8d0"/><path d="M422.43,238c.46,11-5.73,20.27-14.48,21.09-9.29.88-17.95-8.08-19.33-20,0-.3-.06-.59-.08-.89C400,236.36,411.51,236,422.43,238Z" fill="#769fb5"/><ellipse cx="408.8" cy="237.76" rx="4.64" ry="5.58" fill="#fbf0d9"/><path d="M455.09,258.78a2,2,0,0,1-.8-.16c-12.72-5.5-13.88-11.87-14.9-17.49a27.68,27.68,0,0,0-1-4.2c-1.66-4.84-9.84-2.27-9.93-2.24l-.15,0L410.08,239a2,2,0,0,1-.92-3.9l18.18-4.29c4.17-1.31,12.54-2,14.86,4.78a31.24,31.24,0,0,1,1.13,4.79c1,5.3,1.79,9.87,12.55,14.52a2,2,0,0,1-.79,3.84Z" fill="#464040"/><path d="M455.88,255c-10.76-4.65-11.59-9.23-12.55-14.53a32.76,32.76,0,0,0-1.13-4.79c-2.32-6.76-10.69-6.09-14.86-4.78l-18.18,4.29a2,2,0,0,0-1.51,2.2l.05,0L425.88,233c4.17-1.31,12.54-2,14.86,4.78a32.76,32.76,0,0,1,1.13,4.79c1,5.3,1.79,9.88,12.55,14.53a2,2,0,0,1,1.18,1.58,2,2,0,0,0,.28-3.76Z" fill="#bbc8d0"/><path d="M510.88,168.11q-.09-.29-.21-.57c-9.77.15-19.53.63-29.29,1-16.14.62-32.27-.09-48.4,0a5.74,5.74,0,0,0,.1,3.37l.93,3a8.76,8.76,0,0,0,8.2,6l65.36-3.23c3.44-.17,5.34-3.13,4.25-6.62Z" fill="#323338"/></g></g></svg>