<?xml version="1.0" encoding="iso-8859-1"?>
<!-- Generator: Adobe Illustrator 19.0.0, SVG Export Plug-In . SVG Version: 6.00 Build 0)  -->
<svg version="1.1" id="Capa_1" xmlns="http://www.w3.org/2000/svg" xmlns:xlink="http://www.w3.org/1999/xlink" x="0px" y="0px"
	 viewBox="0 0 387.411 387.411" style="enable-background:new 0 0 387.411 387.411;" xml:space="preserve">
<g>
	<g>
		<g>
			<path d="M271.856,226.411c-14.654-7-27.711-15.315-38.791-26.042c-14.558,1.375-26.642,11.832-30.093,26.042H271.856z"/>
			<rect x="254.706" y="285.411" width="38" height="21"/>
			<rect x="53.705" y="285.411" width="38" height="21"/>
			<path d="M20.705,354.463v17.467c0,8.164,7.222,15.481,15.386,15.481h19.006c8.164,0,13.608-7.317,13.608-15.481v-13.519H36.091
				C30.712,358.417,25.418,357.059,20.705,354.463z"/>
			<path d="M277.706,358.411v13.519c0,8.164,7.934,15.481,16.1,15.481h19c8.164,0,13.9-7.317,13.9-15.481v-17.467
				c-4.172,2.591-8.988,3.959-13.9,3.948H277.706z"/>
			<path d="M286.031,0l-78.325,42.955v62.233c0,45.785,27.812,87.285,69.879,105.724l9.164,3.83l10.4-4.461
				c0.02-0.008-0.5-0.016-0.485-0.024c42.942-18.157,70.042-59.882,70.042-106.299V43.019L286.031,0z M334.174,94.497l-0.002,0.003
				l-54.376,44.238c-0.075,0.061-0.155,0.114-0.233,0.173s-0.178,0.137-0.27,0.2c-0.107,0.074-0.216,0.141-0.324,0.209
				c-0.092,0.057-0.183,0.116-0.276,0.169c-0.115,0.065-0.232,0.123-0.349,0.182c-0.091,0.046-0.181,0.095-0.273,0.137
				c-0.125,0.057-0.252,0.106-0.378,0.156c-0.088,0.035-0.174,0.073-0.262,0.1c-0.136,0.049-0.275,0.088-0.413,0.129
				c-0.081,0.024-0.162,0.052-0.244,0.074c-0.146,0.038-0.3,0.067-0.443,0.1c-0.075,0.015-0.149,0.035-0.226,0.048
				c-0.163,0.028-0.327,0.046-0.491,0.063c-0.061,0.007-0.122,0.018-0.184,0.024c-0.226,0.019-0.452,0.029-0.678,0.029
				c-0.287,0-0.573-0.016-0.858-0.047c-0.082-0.009-0.163-0.027-0.244-0.039c-0.2-0.028-0.405-0.055-0.605-0.1
				c-0.1-0.022-0.2-0.054-0.3-0.08c-0.18-0.046-0.358-0.09-0.534-0.148c-0.109-0.036-0.213-0.083-0.321-0.124
				c-0.162-0.062-0.325-0.121-0.484-0.194c-0.112-0.051-0.221-0.114-0.331-0.171c-0.147-0.076-0.3-0.149-0.439-0.235
				c-0.114-0.067-0.221-0.146-0.331-0.22c-0.134-0.089-0.269-0.175-0.4-0.273c-0.11-0.084-0.214-0.179-0.32-0.269
				c-0.106-0.09-0.244-0.2-0.361-0.313c-0.1-0.1-0.2-0.205-0.3-0.31s-0.185-0.182-0.271-0.283l-23.338-27.342
				c-2.869-3.36-2.471-8.41,0.889-11.279s8.41-2.471,11.279,0.889l18.275,21.4l48.316-39.308c3.427-2.789,8.467-2.271,11.256,1.156
				C338.12,86.668,337.602,91.708,334.174,94.497z"/>
			<path d="M220.764,186.401c-4.307-5.711-8.2-11.723-11.647-17.99H84.153c-6.172,0.104-11.699,3.848-14.085,9.542l-20.694,48.458
				h137.288C189.602,207.723,202.778,192.265,220.764,186.401z"/>
			<path d="M318.804,249.098l-6.398-6.687H40.377l-9.463,8.478c-0.088,0.082-0.574-0.109-0.667-0.031
				c-5.945,4.886-9.436,12.143-9.542,19.838v56.761c0,8.164,7.222,14.954,15.386,14.954h276.714c8.164,0,13.9-6.79,13.9-14.954
				v-59.375c0.156-7.132-2.654-14.009-7.759-18.991C318.828,248.978,318.917,249.218,318.804,249.098z M107.705,314.411
				c0,4.418-3.582,8-8,8h-54c-4.418,0-8-3.582-8-8v-37c0-4.418,3.582-8,8-8h54c4.418,0,8,3.582,8,8V314.411z M209.229,321.411
				h-69.559c-4.418,0-8-3.582-8-8s3.582-8,8-8h69.559c4.418,0,8,3.582,8,8S213.648,321.411,209.229,321.411z M209.229,293.411
				h-69.559c-4.418,0-8-3.582-8-8s3.582-8,8-8h69.559c4.418,0,8,3.582,8,8S213.648,293.411,209.229,293.411z M308.706,314.411
				c0,4.418-3.582,8-8,8h-54c-4.418,0-8-3.582-8-8v-37c0-4.418,3.582-8,8-8h54c4.418,0,8,3.582,8,8V314.411z"/>
		</g>
	</g>
</g>
<g>
</g>
<g>
</g>
<g>
</g>
<g>
</g>
<g>
</g>
<g>
</g>
<g>
</g>
<g>
</g>
<g>
</g>
<g>
</g>
<g>
</g>
<g>
</g>
<g>
</g>
<g>
</g>
<g>
</g>
</svg>
